<svg width="33" height="33" viewBox="0 0 33 33" fill="none" xmlns="http://www.w3.org/2000/svg">
<g clip-path="url(#clip0_53_384)">
<path d="M24.2795 5.60395C24.5038 5.67899 24.6083 5.88854 24.6081 6.11293L24.5465 7.78833C24.531 8.28197 25.174 8.52202 25.4736 8.14835L26.5072 6.84799C26.642 6.66862 26.8814 6.624 27.1057 6.69904L28.6609 7.26917C29.1244 7.44918 29.5588 6.89615 29.2751 6.47698L28.3491 5.06979C28.2147 4.87517 28.2448 4.63585 28.3797 4.45648L29.4133 3.15612C29.7279 2.73759 29.3395 2.18368 28.8457 2.31778L27.2296 2.74987C27.0051 2.82442 26.7659 2.71945 26.6464 2.55477L25.7354 1.17751C25.4516 0.75834 24.7932 0.937145 24.7777 1.43079L24.7011 3.07625C24.7009 3.30065 24.5361 3.49494 24.3116 3.5695L22.7105 4.03152C22.2765 4.13577 22.2459 4.82387 22.7094 5.00389L24.2795 5.60395Z" fill="#341200"/>
<path d="M18.2925 13.0245C18.4159 13.0985 18.4652 13.2218 18.4405 13.3452L18.2432 14.2825C18.1692 14.5785 18.5145 14.7758 18.7365 14.5785L19.4518 13.9618C19.5505 13.8878 19.6985 13.8631 19.7972 13.9371L20.6112 14.4305C20.8578 14.5785 21.1538 14.3071 21.0305 14.0605L20.6605 13.1725C20.6112 13.0492 20.6358 12.9258 20.7345 12.8272L21.4498 12.1859C21.6718 11.9885 21.5238 11.6432 21.2278 11.6679L20.2658 11.7419C20.1425 11.7419 20.0192 11.6925 19.9698 11.5692L19.5752 10.7059C19.4518 10.4346 19.0572 10.4839 19.0079 10.7552L18.7859 11.6925C18.7612 11.8159 18.6379 11.9145 18.5145 11.9145L17.5772 12.0132C17.2812 12.0379 17.2072 12.4325 17.4539 12.5805L18.2925 13.0245Z" fill="#341200"/>
<path d="M31.9727 18.0659L30.8353 17.2631C30.6681 17.1628 30.6012 16.9621 30.6681 16.7614L31.036 15.4234C31.1699 15.022 30.6681 14.6875 30.3336 14.9551L29.2297 15.7913C29.0625 15.8917 28.8618 15.9251 28.728 15.7913L27.5572 15.022C27.1893 14.7878 26.7544 15.1223 26.8882 15.5237L27.3565 16.8283C27.4234 16.9955 27.3565 17.1962 27.2227 17.33L26.1188 18.1997C25.7843 18.4674 25.985 19.0026 26.3864 19.0026L27.7914 18.9691C27.9921 18.9691 28.1593 19.0695 28.2262 19.2702L28.6945 20.5747C28.8283 20.9761 29.397 20.9427 29.5308 20.5413L29.9322 19.2033C29.9991 19.036 30.1663 18.9022 30.3336 18.9022L31.7385 18.8353C32.1734 18.8688 32.3406 18.3336 31.9727 18.0659Z" fill="#341200"/>
<path d="M26.5647 23.7144C25.0286 24.0749 23.3874 24.1803 21.6929 23.9216C14.8389 22.8305 10.1462 16.4188 11.2042 9.56969C11.4677 7.90827 12.0534 6.36865 12.8668 4.9985C13.3323 4.25407 12.629 3.37677 11.7782 3.56913C6.33353 4.94217 1.95535 9.43822 1.00279 15.3929C-0.240659 23.2834 5.17005 30.6717 13.0557 31.882C18.9725 32.8063 24.6104 29.985 27.592 25.1866C28.0624 24.4753 27.4155 23.5221 26.5647 23.7144Z" fill="#341200"/>
</g>
<defs>
<clipPath id="clip0_53_384">
<rect width="33" height="33" fill="white"/>
</clipPath>
</defs>
</svg>
