<svg width="39" height="20" viewBox="0 0 39 20" fill="none" xmlns="http://www.w3.org/2000/svg">
<g clip-path="url(#clip0_53_355)">
<path d="M4.37957 12.8361C3.76525 12.5873 3.0516 12.8721 2.79488 13.4807C2.53815 14.0863 2.83308 14.7848 3.45045 15.0352L5.69225 15.9466C6.30963 16.1969 7.02175 15.9106 7.27848 15.302C7.53368 14.6964 7.24027 13.9978 6.62137 13.7475L4.37957 12.8361Z" fill="#341200"/>
<path d="M29.9976 17.008C28.578 12.7088 24.4642 9.60132 19.6093 9.60132C14.7543 9.60132 10.639 12.7088 9.21935 17.008H0V20.0001H39V17.008H29.9976Z" fill="#341200"/>
<path d="M24.7149 8.21619C25.3322 8.46653 26.0444 8.18022 26.3011 7.57311L27.2287 5.37404C27.4854 4.76693 27.192 4.06989 26.5731 3.81805C25.9572 3.56771 25.2436 3.85403 24.9884 4.46263L24.0593 6.6617C23.8025 7.26731 24.0975 7.96586 24.7149 8.21619Z" fill="#341200"/>
<path d="M19.6094 7.22081C20.2787 7.22081 20.8212 6.68865 20.8212 6.03058V1.19023C20.8212 0.532154 20.2787 0 19.6094 0C18.94 0 18.396 0.532154 18.396 1.19023V6.03058C18.396 6.68865 18.9385 7.22081 19.6094 7.22081Z" fill="#341200"/>
<path d="M8.45538 11.0553C8.92911 11.52 9.69777 11.52 10.1715 11.0553C10.6452 10.5891 10.6452 9.8366 10.1715 9.3719L4.31409 3.62614C3.84036 3.15994 3.0717 3.15994 2.59797 3.62614C2.12424 4.09083 2.12424 4.84335 2.59797 5.30804L8.45538 11.0553Z" fill="#341200"/>
<path d="M12.916 7.57313C13.1728 8.18024 13.8849 8.46655 14.5023 8.21622C15.1212 7.96588 15.4146 7.26733 15.1578 6.66173L14.2302 4.46266C13.975 3.85555 13.2599 3.56924 12.644 3.81807C12.0251 4.06991 11.7317 4.76696 11.9884 5.37406L12.916 7.57313Z" fill="#341200"/>
<path d="M30.7618 11.0553L36.6193 5.30804C37.093 4.84335 37.093 4.09083 36.6193 3.62614C36.1455 3.15994 35.3784 3.15994 34.9031 3.62614L29.0457 9.3719C28.572 9.8366 28.572 10.5891 29.0457 11.0553C29.5195 11.52 30.2881 11.52 30.7618 11.0553Z" fill="#341200"/>
<path d="M34.8374 12.8362L32.5956 13.7476C31.9767 13.998 31.6833 14.6965 31.9385 15.3021C32.1952 15.9107 32.9073 16.197 33.5247 15.9467L35.7665 15.0353C36.3854 14.7849 36.6788 14.0864 36.4221 13.4808C36.1669 12.8722 35.4563 12.5889 34.8374 12.8362Z" fill="#341200"/>
</g>
<defs>
<clipPath id="clip0_53_355">
<rect width="39" height="20" fill="white"/>
</clipPath>
</defs>
</svg>
