<svg width="19" height="19" viewBox="0 0 19 19" fill="none" xmlns="http://www.w3.org/2000/svg">
<path d="M18.2713 6.16722C18.2222 6.10089 18.1618 6.04369 18.0929 5.99824C17.6495 5.69842 17.1463 5.49844 16.618 5.41211C16.0897 5.32579 15.549 5.35518 15.0332 5.49825C15.5912 4.95279 16.0889 4.34897 16.5179 3.69717C16.948 3.04021 17.1699 2.26876 17.1546 1.48367C17.1592 1.40644 17.1469 1.32914 17.1187 1.25712C17.0904 1.1851 17.0468 1.12007 16.991 1.06654C16.9155 1.01916 16.8292 0.991657 16.7402 0.986596C15.899 0.909275 15.0565 1.12054 14.3512 1.58565C13.6525 2.05005 13.0346 2.62571 12.522 3.2898C12.7746 2.35394 12.6568 1.3567 12.1931 0.505463C12.1147 0.342446 11.9981 0.20075 11.8532 0.0923901C11.3865 -0.216169 10.7027 0.322304 10.366 0.621567C9.92891 1.01987 9.57946 1.50475 9.33985 2.04539C8.97315 2.94401 8.74671 3.89365 8.66846 4.86105C9.85554 4.9453 10.9775 5.43526 11.8462 6.24873C12.7148 7.06219 13.2772 8.14966 13.4391 9.32867C14.5513 9.25883 15.64 8.97732 16.6466 8.49924C17.421 8.14784 18.0242 7.50349 18.3238 6.70768C18.3594 6.62005 18.3732 6.52511 18.364 6.43099C18.3549 6.33687 18.3231 6.24637 18.2713 6.16722Z" fill="#FF9700"/>
<path d="M12.029 7.48687C11.5225 6.70134 10.7742 6.10191 9.89712 5.7791C9.59637 5.66686 9.28304 5.59177 8.96409 5.5555C8.42726 5.51073 7.88737 5.59116 7.38689 5.79044C6.88641 5.98972 6.439 6.30242 6.07987 6.70394C5.78128 7.03534 5.4794 7.38315 5.18079 7.73425C5.4072 7.83269 5.61063 7.92784 5.79438 8.02628C6.22994 8.22994 6.6061 8.54171 6.88704 8.9319C6.93253 9.00636 6.94667 9.0958 6.92638 9.18066C6.90608 9.26552 6.85301 9.33889 6.77876 9.38472C6.74236 9.40737 6.70185 9.42262 6.65954 9.4296C6.61724 9.43658 6.57398 9.43515 6.53223 9.4254C6.49048 9.41565 6.45106 9.39776 6.41623 9.37276C6.3814 9.34777 6.35183 9.31615 6.32923 9.27972C6.07662 8.94976 5.74006 8.69366 5.3547 8.53815C5.18079 8.44956 4.97407 8.35769 4.73782 8.26253L4.18657 8.94503C3.10095 10.293 2.13376 11.7323 1.29579 13.2467C1.51358 13.2912 1.72671 13.356 1.93235 13.4403C2.35434 13.6145 2.7489 13.8488 3.10376 14.136C3.13747 14.163 3.1655 14.1965 3.18623 14.2345C3.20697 14.2724 3.22 14.3141 3.22457 14.3571C3.22914 14.4001 3.22517 14.4435 3.21289 14.485C3.2006 14.5264 3.18024 14.5651 3.15298 14.5986C3.12179 14.6363 3.0827 14.6668 3.03848 14.6877C2.99426 14.7087 2.94598 14.7197 2.89704 14.72C2.82285 14.7206 2.75081 14.6951 2.6936 14.6478C2.37241 14.3863 2.01269 14.176 1.6272 14.0244C1.42129 13.9428 1.20655 13.8855 0.987354 13.8538C0.461979 14.8551 0.128136 15.9456 0.00297893 17.0694C-0.0167047 17.3291 0.061679 17.5867 0.222657 17.7914C0.383635 17.9961 0.61551 18.1331 0.87251 18.1752C1.02893 18.1987 1.18684 18.2107 1.34501 18.2113C2.5361 18.2113 4.69517 17.5944 8.32751 14.7627C8.24856 14.5542 8.14501 14.356 8.01907 14.1721C7.77643 13.8319 7.46997 13.5421 7.11673 13.3189C7.0442 13.2708 6.99366 13.196 6.97614 13.1107C6.95862 13.0255 6.97555 12.9367 7.02322 12.8639C7.0709 12.7911 7.14545 12.7401 7.2306 12.7221C7.31574 12.7041 7.40457 12.7204 7.47767 12.7677C7.88873 13.0292 8.2462 13.3666 8.53095 13.7619C8.66038 13.9429 8.7714 14.1363 8.86235 14.3394C9.66954 13.6864 10.5456 12.9285 11.4972 12.0524C11.4407 11.8229 11.3558 11.6013 11.2445 11.3928C10.9936 10.9463 10.5872 10.6076 10.1027 10.4413C10.0214 10.4112 9.9554 10.3501 9.91917 10.2713C9.88294 10.1926 9.87944 10.1027 9.90944 10.0214C9.93944 9.94011 10.0005 9.87404 10.0792 9.83771C10.1578 9.80139 10.2477 9.79778 10.3291 9.82768C10.9125 10.0267 11.4103 10.4192 11.74 10.94C11.8607 11.1314 11.9587 11.3363 12.032 11.5503C12.0416 11.5436 12.0504 11.5359 12.0583 11.5274C12.242 11.3928 13.1542 10.6349 12.7244 9.02378C12.5781 8.47692 12.3432 7.95773 12.029 7.48687Z" fill="#FF9700"/>
</svg>
