<svg width="32" height="32" viewBox="0 0 32 32" fill="none" xmlns="http://www.w3.org/2000/svg">
<path d="M27.625 27.3125V24.5H8.125C6.05725 24.5 4.375 26.1823 4.375 28.25C4.375 30.3177 6.05725 32 8.125 32H27.625V29.1875H7.1875V27.3125H27.625Z" fill="#341200"/>
<path d="M2.5 4.68755V27.3125H2.57856C2.9205 25.2832 4.35269 23.6196 6.25 22.9468V0.0943604C4.113 0.529923 2.5 2.4238 2.5 4.68755Z" fill="#341200"/>
<path d="M20.125 0V11.7992L22 9.92419L23.875 11.7992V0H20.125Z" fill="#341200"/>
<path d="M25.75 0V16.3258L22 12.5758L18.25 16.3258V0H8.125V22.625H29.5V0H25.75Z" fill="#341200"/>
</svg>
