<svg width="41" height="41" viewBox="0 0 41 41" fill="none" xmlns="http://www.w3.org/2000/svg">
<g clip-path="url(#clip0_53_365)">
<path d="M20.5 31.3105C26.4705 31.3105 31.3105 26.4705 31.3105 20.5C31.3105 14.5295 26.4705 9.68945 20.5 9.68945C14.5295 9.68945 9.68945 14.5295 9.68945 20.5C9.68945 26.4705 14.5295 31.3105 20.5 31.3105Z" fill="#341200"/>
<path d="M29.8427 29.8427C29.3734 30.3119 29.3734 31.0719 29.8427 31.5411L35.6419 37.3404C36.1112 37.8096 36.8711 37.8096 37.3404 37.3404C37.8096 36.8711 37.8096 36.1112 37.3404 35.6419L31.5411 29.8427C31.0719 29.3734 30.3119 29.3734 29.8427 29.8427Z" fill="#341200"/>
<path d="M5.35729 3.65883C4.88803 3.18957 4.12809 3.18957 3.65883 3.65883C3.18957 4.12809 3.18957 4.88803 3.65883 5.35729L9.45809 11.1565C9.92734 11.6258 10.6873 11.6258 11.1565 11.1565C11.6258 10.6873 11.6258 9.92734 11.1565 9.45809L5.35729 3.65883Z" fill="#341200"/>
<path d="M3.65883 37.3411C4.12809 37.8104 4.88803 37.8104 5.35729 37.3411L11.1565 31.5419C11.6258 31.0726 11.6258 30.3127 11.1565 29.8434C10.6873 29.3741 9.92734 29.3741 9.45809 29.8434L3.65883 35.6427C3.18957 36.1119 3.18957 36.8719 3.65883 37.3411Z" fill="#341200"/>
<path d="M37.3411 3.65883C36.8719 3.18957 36.1119 3.18957 35.6427 3.65883L29.8434 9.45809C29.3741 9.92734 29.3741 10.6873 29.8434 11.1565C30.3127 11.6258 31.0726 11.6258 31.5419 11.1565L37.3411 5.35729C37.8104 4.88803 37.8104 4.12809 37.3411 3.65883Z" fill="#341200"/>
<path d="M25.5562 32.7078C24.9436 32.9609 24.6529 33.6648 24.9067 34.2774L25.826 36.4963C26.0799 37.1097 26.7846 37.3996 27.3956 37.1458C28.0082 36.8927 28.2988 36.1888 28.045 35.5762L27.1257 33.3573C26.8719 32.7447 26.1672 32.4556 25.5562 32.7078Z" fill="#341200"/>
<path d="M15.4447 8.29204C16.0573 8.03899 16.348 7.33511 16.0949 6.72251L15.1756 4.50274C14.9234 3.89015 14.2147 3.60106 13.6061 3.85251C12.9935 4.10556 12.7028 4.80944 12.9558 5.42204L13.8751 7.64101C14.129 8.2544 14.8337 8.54429 15.4447 8.29124V8.29204Z" fill="#341200"/>
<path d="M6.72257 24.9059L4.5028 25.8252C3.89021 26.0782 3.59952 26.7821 3.85257 27.3947C4.10642 28.0081 4.8111 28.298 5.4221 28.0441L7.64107 27.1248C8.25366 26.8718 8.54435 26.1679 8.2905 25.5553C8.03745 24.9419 7.33357 24.652 6.72097 24.9059H6.72257Z" fill="#341200"/>
<path d="M34.2775 16.0942L36.4965 15.1749C37.1091 14.9218 37.3998 14.2179 37.1459 13.6053C36.8929 12.9919 36.189 12.7053 35.5764 12.9551L33.3574 13.8744C32.7448 14.1274 32.4542 14.8313 32.708 15.4439C32.9619 16.0573 33.6665 16.3472 34.2775 16.0942Z" fill="#341200"/>
<path d="M13.8751 33.3572L12.9558 35.5762C12.7028 36.1888 12.9935 36.8927 13.6061 37.1457C14.2171 37.3988 14.9218 37.1097 15.1756 36.4963L16.0949 34.2773C16.348 33.6647 16.0573 32.9609 15.4447 32.7078C14.8321 32.4548 14.1282 32.7454 13.8751 33.3572Z" fill="#341200"/>
<path d="M27.1248 7.64264L28.0441 5.42367C28.2971 4.81108 28.0064 4.10719 27.3946 3.85414C26.7844 3.6011 26.0781 3.89018 25.8251 4.50358L24.9058 6.72334C24.6528 7.33594 24.9434 8.03983 25.5552 8.29287C26.1662 8.54592 26.8709 8.25684 27.1248 7.64264Z" fill="#341200"/>
<path d="M7.64254 13.8751L5.42358 12.9558C4.81498 12.7051 4.10869 12.9918 3.85405 13.606C3.601 14.2186 3.89168 14.9225 4.50348 15.1756L6.72244 16.0948C7.33344 16.3479 8.03813 16.0588 8.29198 15.4446C8.54582 14.832 8.25434 14.1281 7.64254 13.8751Z" fill="#341200"/>
<path d="M36.4963 25.8253L34.2773 24.906C33.6687 24.6513 32.9625 24.942 32.7078 25.5554C32.4548 26.168 32.7454 26.8719 33.3572 27.1249L35.5762 28.0442C36.1872 28.2973 36.8919 28.0082 37.1457 27.3948C37.3988 26.7822 37.1081 26.0783 36.4963 25.8253Z" fill="#341200"/>
<path d="M19.2988 34.9141V39.7988C19.2988 40.4627 19.8362 41 20.5 41C21.1638 41 21.7012 40.4627 21.7012 39.7988V34.9141C21.7012 34.2502 21.1638 33.7129 20.5 33.7129C19.8362 33.7129 19.2988 34.2502 19.2988 34.9141Z" fill="#341200"/>
<path d="M21.7012 6.08594V1.20117C21.7012 0.537324 21.1638 0 20.5 0C19.8362 0 19.2988 0.537324 19.2988 1.20117V6.08594C19.2988 6.74978 19.8362 7.28711 20.5 7.28711C21.1638 7.28711 21.7012 6.74978 21.7012 6.08594Z" fill="#341200"/>
<path d="M0 20.5C0 21.1638 0.537324 21.7012 1.20117 21.7012H6.08594C6.74978 21.7012 7.28711 21.1638 7.28711 20.5C7.28711 19.8362 6.74978 19.2988 6.08594 19.2988H1.20117C0.537324 19.2988 0 19.8362 0 20.5Z" fill="#341200"/>
<path d="M39.7988 19.2988H34.9141C34.2502 19.2988 33.7129 19.8362 33.7129 20.5C33.7129 21.1638 34.2502 21.7012 34.9141 21.7012H39.7988C40.4627 21.7012 41 21.1638 41 20.5C41 19.8362 40.4627 19.2988 39.7988 19.2988Z" fill="#341200"/>
</g>
<defs>
<clipPath id="clip0_53_365">
<rect width="41" height="41" fill="white"/>
</clipPath>
</defs>
</svg>
