<svg width="19" height="24" viewBox="0 0 19 24" fill="none" xmlns="http://www.w3.org/2000/svg">
<path d="M0 20.0901C0 16.7686 2.68685 14.0759 6.00125 14.0759H12.7259C16.0402 14.0759 18.7271 16.7686 18.7271 20.0901C18.7271 21.4602 17.8015 22.6498 16.4528 22.8738C14.7646 23.1541 12.2601 23.4597 9.36353 23.4597C6.46697 23.4597 3.96241 23.1541 2.27433 22.8738C0.925538 22.6498 0 21.4602 0 20.0901Z" fill="white"/>
<path d="M3.51172 5.86483C3.51172 2.62578 6.13184 0 9.36392 0C12.596 0 15.2161 2.62578 15.2161 5.86483C15.2161 9.10389 12.596 11.7297 9.36392 11.7297C6.13184 11.7297 3.51172 9.10389 3.51172 5.86483Z" fill="white"/>
</svg>
