<svg width="25" height="28" viewBox="0 0 25 28" fill="none" xmlns="http://www.w3.org/2000/svg">
<path d="M15.0856 14.5336C14.5985 14.0019 13.8063 14.0019 13.3192 14.5336C11.8579 16.1286 9.47648 16.1286 8.01515 14.5336L3.59673 9.71097C2.88821 8.93764 2.49951 7.9119 2.49951 6.81634C2.49951 5.72079 2.88821 4.69505 3.59673 3.92171C5.05806 2.32671 7.43456 2.32671 8.9008 3.92171L11.6168 6.88616C12.1039 7.41782 12.8961 7.41782 13.3832 6.88616C13.8703 6.35449 13.8703 5.48986 13.3832 4.95819L10.6672 1.99375C8.23164 -0.664583 4.26589 -0.664583 1.83035 1.99375C0.649478 3.28264 0 4.99042 0 6.81634C0 8.6369 0.649478 10.35 1.83035 11.6389L6.24877 16.4615C7.469 17.788 9.06809 18.4539 10.6672 18.4539C12.2663 18.4539 13.8654 17.788 15.0856 16.4615C15.5727 15.9299 15.5727 15.0652 15.0856 14.5336Z" fill="#341200"/>
<path d="M23.1648 15.6343L18.7464 10.8117C16.3108 8.15341 12.3451 8.15341 9.90952 10.8117C9.42241 11.3434 9.42241 12.208 9.90952 12.7397C10.3966 13.2714 11.1888 13.2714 11.6759 12.7397C13.1372 11.1447 15.5137 11.1447 16.98 12.7397L21.3984 17.5623C22.1069 18.3356 22.4956 19.3614 22.4956 20.4569C22.4956 21.5525 22.1069 22.5782 21.3984 23.3516C19.9814 24.8982 17.5114 24.8982 16.0943 23.3516L13.3832 20.3871C12.8961 19.8554 12.104 19.8554 11.6169 20.3871C11.1298 20.9188 11.1298 21.7834 11.6169 22.3151L14.3329 25.2742C15.5137 26.563 17.0833 27.2719 18.7513 27.2719C20.4193 27.2719 21.9888 26.563 23.1697 25.2742C24.3506 23.9853 25 22.2721 25 20.4516C24.9951 18.631 24.3456 16.9232 23.1648 15.6343Z" fill="#341200"/>
<path d="M6.24877 21.8209H4.99901V20.4568C4.99901 19.705 4.4381 19.0928 3.74926 19.0928C3.06042 19.0928 2.49951 19.705 2.49951 20.4568V21.8209H1.24975C0.560913 21.8209 0 22.4331 0 23.185C0 23.9368 0.560913 24.5491 1.24975 24.5491H2.49951V25.9131C2.49951 26.665 3.06042 27.2772 3.74926 27.2772C4.4381 27.2772 4.99901 26.665 4.99901 25.9131V24.5491H6.24877C6.93761 24.5491 7.49852 23.9368 7.49852 23.185C7.49852 22.4278 6.93761 21.8209 6.24877 21.8209Z" fill="#341200"/>
</svg>
