<svg width="24" height="24" viewBox="0 0 24 24" fill="none" xmlns="http://www.w3.org/2000/svg">
<path fill-rule="evenodd" clip-rule="evenodd" d="M12 10.5599C12.0412 10.5599 12.0826 10.56 12.1241 10.56V10.5596C19.0014 10.5411 22.1048 9.75523 22.8 9.35995C22.8 8.01595 21.6413 7.67995 21.062 7.67995C21.1862 5.75995 19.9862 5.22746 19.2 5.03995C19.0013 3.31195 17.2965 2.83994 16.4689 2.87995C15.7737 1.72795 14.4827 1.79995 13.862 2.03995C13.4288 1.41177 12.7121 1.24031 12.1241 1.2068V1.19995C12.0837 1.19995 12.0423 1.20046 12 1.20161C11.9576 1.20046 11.9162 1.19995 11.8758 1.19995V1.2068C11.2878 1.24031 10.5711 1.41177 10.1379 2.03995C9.5172 1.79995 8.22617 1.72795 7.53098 2.87995C6.70339 2.83994 4.99858 3.31195 4.79995 5.03995C4.01374 5.22746 2.81374 5.75995 2.93789 7.67995C2.35857 7.67995 1.19995 8.01595 1.19995 9.35995C1.89509 9.75523 4.9985 10.5411 11.8758 10.5596V10.56C11.9005 10.56 11.9252 10.56 11.9499 10.5599C11.9666 10.5599 11.9833 10.5599 12 10.5599ZM14.88 3.59995C14.7474 3.59995 14.64 3.7074 14.64 3.83995C14.64 3.9725 14.7474 4.07995 14.88 4.07995C15.2776 4.07995 15.6 4.4023 15.6 4.79995C15.6 5.19761 15.2776 5.51995 14.88 5.51995C14.7474 5.51995 14.64 5.6274 14.64 5.75995C14.64 5.8925 14.7474 5.99995 14.88 5.99995C15.5427 5.99995 16.08 5.46269 16.08 4.79995C16.08 4.13722 15.5427 3.59995 14.88 3.59995ZM11.52 4.79995C11.3874 4.79995 11.28 4.9074 11.28 5.03995C11.28 5.1725 11.3874 5.27995 11.52 5.27995C11.9176 5.27995 12.24 5.60229 12.24 5.99995C12.24 6.39761 11.9176 6.71995 11.52 6.71995C11.3874 6.71995 11.28 6.8274 11.28 6.95995C11.28 7.0925 11.3874 7.19995 11.52 7.19995C12.1827 7.19995 12.72 6.66269 12.72 5.99995C12.72 5.33721 12.1827 4.79995 11.52 4.79995ZM17.04 6.71995C17.04 6.5874 17.1474 6.47995 17.28 6.47995C17.9427 6.47995 18.48 7.01722 18.48 7.67995C18.48 8.34269 17.9427 8.87995 17.28 8.87995C17.1474 8.87995 17.04 8.7725 17.04 8.63995C17.04 8.5074 17.1474 8.39995 17.28 8.39995C17.6776 8.39995 18 8.07761 18 7.67995C18 7.2823 17.6776 6.95995 17.28 6.95995C17.1474 6.95995 17.04 6.8525 17.04 6.71995ZM13.68 7.19995C13.5474 7.19995 13.44 7.3074 13.44 7.43995C13.44 7.5725 13.5474 7.67995 13.68 7.67995C14.0776 7.67995 14.4 8.0023 14.4 8.39995C14.4 8.79761 14.0776 9.11995 13.68 9.11995C13.5474 9.11995 13.44 9.2274 13.44 9.35995C13.44 9.4925 13.5474 9.59995 13.68 9.59995C14.3427 9.59995 14.88 9.06269 14.88 8.39995C14.88 7.73722 14.3427 7.19995 13.68 7.19995Z" fill="#FF9700"/>
<path d="M22.7944 9.83032C21.685 10.679 18.5399 11.28 12 11.28C5.46006 11.28 2.31498 10.679 1.20557 9.83032C1.31453 14.3757 3.03423 18.1933 7.67999 19.5906V21.36C7.67999 21.36 8.15999 22.8 12 22.8C15.84 22.8 16.32 21.36 16.32 21.36V19.5906C20.9657 18.1933 22.6854 14.3757 22.7944 9.83032Z" fill="#FF9700"/>
</svg>
