<svg width="21" height="21" viewBox="0 0 21 21" fill="none" xmlns="http://www.w3.org/2000/svg">
<path d="M10.4981 0.000488281C9.91058 0.000488281 9.75862 0.206189 9.4711 0.413874C9.18371 0.621559 8.88614 0.894526 8.59912 1.23416C8.02508 1.91344 7.48169 2.8724 7.48169 4.031C7.48172 5.18954 8.02508 6.14853 8.59912 6.8278C8.88618 7.16744 9.18358 7.44054 9.4711 7.64813C9.75849 7.85581 9.91058 8.06151 10.4981 8.06151C11.0857 8.06151 11.2376 7.85581 11.5251 7.64813C11.8125 7.44044 12.1165 7.16744 12.4036 6.8278C12.9776 6.14853 13.521 5.18957 13.521 4.031C13.521 2.8724 12.9776 1.91344 12.4036 1.23416C12.1165 0.894526 11.8127 0.621427 11.5251 0.413874C11.2377 0.206189 11.0857 0.000488281 10.4981 0.000488281Z" fill="#FF9700"/>
<path d="M12.2485 8.33919C11.4292 9.15845 11.1344 10.224 11.06 11.1102C11.0229 11.5533 11.0434 11.955 11.0987 12.3051C11.1552 12.6552 11.1152 12.9101 11.5314 13.3256C11.9469 13.7411 12.2019 13.7019 12.552 13.7584C12.9021 13.815 13.3103 13.8345 13.7534 13.7971C14.6396 13.7227 15.6987 13.4279 16.5179 12.6086C17.3372 11.7894 17.632 10.7303 17.7064 9.84411C17.7434 9.40099 17.7229 8.99277 17.6677 8.64271C17.6112 8.29262 17.6512 8.04413 17.2349 7.62863C16.8195 7.21313 16.5645 7.24593 16.2144 7.18938C14.7872 7.01675 13.129 7.489 12.2485 8.33919Z" fill="#FF9700"/>
<path d="M5.98311 7.15726C5.53999 7.11989 5.13828 7.13411 4.78819 7.19033C4.4381 7.24688 4.18309 7.21348 3.76762 7.62957C3.35212 8.04508 3.38493 8.29357 3.32841 8.64366C3.27186 8.99372 3.25896 9.40194 3.29534 9.84506C3.36975 10.7313 3.65812 11.7903 4.47739 12.6096C5.29662 13.4288 6.36213 13.7236 7.24836 13.7981C7.69148 13.8351 8.09323 13.8146 8.44331 13.7594C8.79337 13.7028 9.04841 13.7428 9.46385 13.3266C9.87935 12.9111 9.84654 12.6561 9.90306 12.3061C9.95961 11.956 9.97251 11.5542 9.93613 11.1111C9.86172 10.2249 9.57335 9.1594 8.75408 8.34014C7.93521 7.67558 6.92126 7.24562 5.98311 7.15726Z" fill="#FF9700"/>
<path d="M12.2485 15.5217C11.4293 16.341 11.1344 17.4065 11.06 18.2927C11.0229 18.7358 11.0434 19.1376 11.0987 19.4876C11.1552 19.8377 11.1152 20.0927 11.5314 20.5082C11.9469 20.9237 12.2019 20.8844 12.552 20.941C12.9021 20.9975 13.3103 21.017 13.7534 20.9797C14.6396 20.9052 15.6987 20.6104 16.5179 19.7911C17.3372 18.9719 17.632 17.9129 17.7064 17.0266C17.7434 16.5835 17.7229 16.1753 17.6677 15.8252C17.6112 15.4752 17.6512 15.2267 17.2349 14.8111C16.8195 14.3957 16.5645 14.4284 16.2144 14.3719C14.785 14.2013 13.1301 14.6706 12.2485 15.5217Z" fill="#FF9700"/>
<path d="M5.98311 14.3399C5.54002 14.3025 5.13828 14.3167 4.78819 14.3729C4.4381 14.4295 4.18312 14.3961 3.76762 14.8122C3.35212 15.2277 3.38493 15.4762 3.32841 15.8262C3.27186 16.1763 3.25896 16.5845 3.29534 17.0276C3.36975 17.9139 3.65812 18.9729 4.47739 19.7922C5.29662 20.6114 6.36213 20.9063 7.24836 20.9807C7.69145 21.018 8.09323 20.9972 8.44331 20.942C8.79337 20.8854 9.04838 20.9254 9.46385 20.5092C9.87935 20.0937 9.84654 19.8387 9.90306 19.4886C9.95961 19.1386 9.97251 18.7368 9.93613 18.2937C9.86172 17.4075 9.57335 16.342 8.75408 15.5227C7.93518 14.8582 6.92133 14.4282 5.98311 14.3399Z" fill="#FF9700"/>
</svg>
