<svg id="Layer_3" enable-background="new 0 0 60 60" height="512" viewBox="0 0 60 60" width="512" xmlns="http://www.w3.org/2000/svg"><path d="m45.65 14.07c.18-.47.27-.96.27-1.46 0-1.66-1-3.16-2.54-3.81-2.06-.87-4.41.05-5.34 2.09l-6.677 14.61h9.959z"/><path d="m46.39 21.68c0 1.64 1.34 2.98 2.98 2.98 1.65 0 2.99-1.34 2.99-2.98 0-1.65-1.34-2.98-2.99-2.98-1.64 0-2.98 1.33-2.98 2.98z"/><path d="m31.55 9.48c0-1.65-1.34-2.98-2.98-2.98-1.65 0-2.98 1.33-2.98 2.98 0 1.64 1.33 2.98 2.98 2.98 1.64 0 2.98-1.34 2.98-2.98z"/><path d="m20.861 19.991c-.255 0-.509-.096-.704-.29l-5.4-5.358c-.084 1.482-.059 5.657 2.513 8.237 2.21 2.2 5.59 2.54 7.45 2.54.76 0 1.26-.06 1.33-.06.46-.06.82-.42.88-.88.02-.23.63-5.67-2.48-8.78-2.63-2.622-6.914-2.597-8.317-2.509l5.433 5.39c.391.39.394 1.023.005 1.415-.196.197-.453.295-.71.295z"/><path d="m53.596 36.747h-47.193c3.414 9.746 12.697 16.753 23.597 16.753 10.893 0 20.18-7.007 23.596-16.753z"/><path d="m54 27.5h-48c-.55 0-1 .45-1 1 0 2.156.274 4.25.79 6.247h48.42c.516-1.997.79-4.091.79-6.247 0-.55-.45-1-1-1z"/></svg>