<svg width="22" height="17" viewBox="0 0 22 17" fill="none" xmlns="http://www.w3.org/2000/svg">
<path d="M20.862 13.6418H0.629637C0.281909 13.6418 0 13.9238 0 14.2715C0 15.7783 1.22154 16.9999 2.72843 16.9999H18.7632C20.27 16.9999 21.4916 15.7784 21.4916 14.2715C21.4916 13.9238 21.2097 13.6418 20.862 13.6418Z" fill="white"/>
<path d="M12.4248 2.01433V1.67903C12.4248 0.751745 11.673 0 10.7457 0C9.81846 0 9.06671 0.751745 9.06671 1.67903V2.01433C9.61756 1.93143 10.1784 1.88891 10.7457 1.88891C11.3131 1.88891 11.8739 1.93143 12.4248 2.01433Z" fill="white"/>
<path d="M17.7211 6.03739C15.8579 4.17425 13.3808 3.14819 10.7459 3.14819C8.11107 3.14819 5.63395 4.17425 3.77081 6.03739C2.0569 7.7513 1.05204 9.98496 0.901978 12.3829H20.5898C20.4398 9.98496 19.435 7.7513 17.7211 6.03739Z" fill="white"/>
</svg>
