<svg width="22" height="22" viewBox="0 0 22 22" fill="none" xmlns="http://www.w3.org/2000/svg">
<path fill-rule="evenodd" clip-rule="evenodd" d="M10.8 9.35993C10.8413 9.35998 10.8826 9.36 10.9241 9.36V9.35966C17.8014 9.34116 20.9049 8.55528 21.6 8.16C21.6 6.816 20.4414 6.48 19.8621 6.48C19.9862 4.56 18.7862 4.02751 18 3.84C17.8014 2.112 16.0966 1.63999 15.269 1.68C14.5738 0.528 13.2828 0.6 12.6621 0.84C12.2288 0.211814 11.5121 0.0403632 10.9241 0.00684963V0C10.8838 0 10.8423 0.00050876 10.8 0.00165596C10.7577 0.00050876 10.7162 0 10.6759 0V0.00684963C10.0879 0.0403632 9.37116 0.211814 8.93794 0.84C8.31725 0.6 7.02622 0.528 6.33103 1.68C5.50344 1.63999 3.79862 2.112 3.6 3.84C2.81378 4.02751 1.61378 4.56 1.73794 6.48C1.15862 6.48 0 6.816 0 8.16C0.695138 8.55528 3.79855 9.34116 10.6759 9.35966V9.36C10.7006 9.36 10.7253 9.36 10.7499 9.35998C10.7666 9.35995 10.7833 9.35993 10.8 9.35993ZM13.68 2.4C13.5474 2.4 13.44 2.50745 13.44 2.64C13.44 2.77255 13.5474 2.88 13.68 2.88C14.0777 2.88 14.4 3.20234 14.4 3.6C14.4 3.99766 14.0777 4.32 13.68 4.32C13.5474 4.32 13.44 4.42745 13.44 4.56C13.44 4.69255 13.5474 4.8 13.68 4.8C14.3427 4.8 14.88 4.26274 14.88 3.6C14.88 2.93726 14.3427 2.4 13.68 2.4ZM10.32 3.6C10.1874 3.6 10.08 3.70745 10.08 3.84C10.08 3.97255 10.1874 4.08 10.32 4.08C10.7177 4.08 11.04 4.40234 11.04 4.8C11.04 5.19766 10.7177 5.52 10.32 5.52C10.1874 5.52 10.08 5.62745 10.08 5.76C10.08 5.89255 10.1874 6 10.32 6C10.9827 6 11.52 5.46274 11.52 4.8C11.52 4.13726 10.9827 3.6 10.32 3.6ZM15.84 5.52C15.84 5.38745 15.9474 5.28 16.08 5.28C16.7427 5.28 17.28 5.81726 17.28 6.48C17.28 7.14274 16.7427 7.68 16.08 7.68C15.9474 7.68 15.84 7.57255 15.84 7.44C15.84 7.30745 15.9474 7.2 16.08 7.2C16.4777 7.2 16.8 6.87766 16.8 6.48C16.8 6.08234 16.4777 5.76 16.08 5.76C15.9474 5.76 15.84 5.65255 15.84 5.52ZM12.48 6C12.3474 6 12.24 6.10745 12.24 6.24C12.24 6.37255 12.3474 6.48 12.48 6.48C12.8777 6.48 13.2 6.80234 13.2 7.2C13.2 7.59766 12.8777 7.92 12.48 7.92C12.3474 7.92 12.24 8.02745 12.24 8.16C12.24 8.29255 12.3474 8.4 12.48 8.4C13.1427 8.4 13.68 7.86274 13.68 7.2C13.68 6.53726 13.1427 6 12.48 6Z" fill="#341200"/>
<path d="M21.5944 8.63037C20.485 9.47901 17.34 10.0801 10.8 10.0801C4.26011 10.0801 1.11502 9.47901 0.00561523 8.63037C0.114578 13.1758 1.83428 16.9934 6.48004 18.3906V20.1601C6.48004 20.1601 6.96004 21.6001 10.8 21.6001C14.64 21.6001 15.12 20.1601 15.12 20.1601V18.3906C19.7658 16.9934 21.4855 13.1758 21.5944 8.63037Z" fill="#341200"/>
</svg>
