<svg width="19" height="14" viewBox="0 0 19 14" fill="none" xmlns="http://www.w3.org/2000/svg">
<g clip-path="url(#clip0_213_356)">
<path d="M4.14143 3.66333C3.77765 3.66333 3.42204 3.77076 3.11957 3.97202C2.81709 4.17329 2.58135 4.45935 2.44213 4.79405C2.30292 5.12874 2.2665 5.49702 2.33747 5.85233C2.40844 6.20764 2.58361 6.53401 2.84084 6.79017C3.09808 7.04633 3.42581 7.22078 3.7826 7.29146C4.13939 7.36213 4.50921 7.32586 4.8453 7.18723C5.18139 7.04859 5.46865 6.81382 5.67075 6.51261C5.87286 6.21139 5.98073 5.85726 5.98073 5.49499C5.98073 5.0092 5.78695 4.54331 5.44201 4.19981C5.09707 3.85631 4.62924 3.66333 4.14143 3.66333Z" fill="#FF9700"/>
<path d="M18.255 10.7458C17.1146 11.3564 15.6769 11.2404 14.3097 10.4589C14.0603 10.3058 13.8281 10.1267 13.6169 9.92463C13.4401 9.75038 13.2448 9.59582 13.0345 9.46366C12.0412 8.90195 10.5391 9.51251 8.94507 10.1597C7.57479 10.7153 6.04204 11.3381 4.53994 11.3381C4.30405 11.3386 4.06842 11.3223 3.83487 11.2892C3.04324 11.1569 2.29248 10.8461 1.64001 10.3805C0.987548 9.91484 0.450665 9.30678 0.0704346 8.60278V10.0559C0.401509 12.0158 2.05075 13.6918 3.92071 13.9573C5.48105 14.1802 7.12416 13.5116 8.71516 12.8644C10.4502 12.1623 12.0872 11.4968 13.341 12.2051C13.5881 12.3574 13.8183 12.5355 14.0277 12.7362C14.206 12.9091 14.4022 13.0627 14.6132 13.1941C15.7965 13.8688 17.0196 13.9726 17.9669 13.472C18.2448 13.3447 18.4858 13.1495 18.6675 12.9045C18.8492 12.6595 18.9657 12.3727 19.0061 12.0707V10.1841C18.7902 10.4132 18.5361 10.6032 18.255 10.7458Z" fill="#FF9700"/>
<path d="M16.7987 6.01702C16.5841 5.87354 16.3787 5.73617 16.2132 5.611C15.539 5.07546 14.9105 4.48528 14.334 3.8465C13.9846 3.48017 13.6259 3.10163 13.2519 2.75666C9.58863 -0.647174 5.55442 -0.3999 3.21238 0.84563C1.09718 1.96905 -0.0861058 3.94419 -0.000271637 6.10555C0.0416776 6.15624 0.0644567 6.21998 0.064104 6.28566V6.78632C0.398244 8.7462 2.05055 10.4252 3.92051 10.6847C5.48085 10.9076 7.12396 10.239 8.71496 9.59487C10.45 8.88968 12.087 8.22417 13.3408 8.93547C13.5879 9.08676 13.818 9.2638 14.0275 9.4636C14.2058 9.63651 14.402 9.79001 14.613 9.92151C15.7963 10.5992 17.0194 10.7 17.9667 10.1993C18.2435 10.0732 18.484 9.87942 18.6656 9.63607C18.8473 9.39272 18.9643 9.10764 19.0059 8.80725C19.0948 7.54341 17.7797 6.66115 16.7987 6.01702ZM4.14123 7.93721C3.65619 7.93721 3.18204 7.79398 2.77874 7.52563C2.37545 7.25727 2.06112 6.87585 1.8755 6.42959C1.68988 5.98334 1.64132 5.49229 1.73594 5.01854C1.83057 4.5448 2.06414 4.10964 2.40711 3.76809C2.75009 3.42654 3.18707 3.19394 3.66279 3.09971C4.13851 3.00548 4.6316 3.05384 5.07972 3.23868C5.52784 3.42353 5.91085 3.73655 6.18033 4.13818C6.4498 4.5398 6.59363 5.01197 6.59363 5.495C6.59363 6.14271 6.33525 6.7639 5.87534 7.2219C5.41542 7.67991 4.79164 7.93721 4.14123 7.93721Z" fill="#FF9700"/>
</g>
<defs>
<clipPath id="clip0_213_356">
<rect width="19" height="14" fill="white"/>
</clipPath>
</defs>
</svg>
