<svg width="21" height="21" viewBox="0 0 21 21" fill="none" xmlns="http://www.w3.org/2000/svg">
<g clip-path="url(#clip0_213_362)">
<path d="M3.94086 12.4167L0 13.1193L0.83345 13.9528C1.0773 14.1966 1.10197 14.3658 1.14651 14.6728C1.20035 15.0443 1.27421 15.5532 1.80693 16.0859C2.33981 16.6186 2.84866 16.6925 3.22005 16.7465C3.52718 16.791 3.69621 16.8155 3.94022 17.0594C4.18407 17.3034 4.20875 17.4726 4.25329 17.7795C4.30728 18.1511 4.38114 18.6599 4.91386 19.1927C5.44659 19.7255 5.95544 19.7994 6.32698 19.8534C6.63412 19.8979 6.80315 19.9224 7.04716 20.1665L7.88061 20.9999L8.58316 17.059C6.3539 16.4065 4.59343 14.646 3.94086 12.4167Z" fill="#FF9700"/>
<path d="M17.0592 8.58316L21 7.88061L20.1666 7.04716C19.9226 6.80331 19.8981 6.63412 19.8535 6.32714C19.7997 5.9556 19.7258 5.44675 19.1929 4.91402C18.6602 4.3813 18.1514 4.30744 17.7798 4.25345C17.4728 4.20891 17.3038 4.18439 17.0598 3.94054C16.8158 3.69653 16.7913 3.52734 16.7467 3.22037C16.6927 2.84882 16.6189 2.33997 16.0862 1.80725C15.5534 1.27437 15.0446 1.20051 14.6729 1.14651C14.3659 1.10197 14.1967 1.07746 13.9529 0.83345L13.1194 0L12.4169 3.94086C14.6461 4.59343 16.4066 6.3539 17.0592 8.58316Z" fill="#FF9700"/>
<path d="M7.64848 9.22077C8.33742 9.61843 8.96002 9.79467 9.43779 9.86837C9.18705 9.27845 8.95233 8.44548 8.95233 7.39093C8.95233 6.39021 9.16382 5.58897 9.39966 5.00562C7.90467 5.30458 6.62277 6.2002 5.81335 7.43259C6.02644 7.82207 6.55372 8.58871 7.64848 9.22077Z" fill="#FF9700"/>
<path d="M13.3514 11.7794C12.6625 11.3818 12.04 11.2055 11.5623 11.1318C11.8128 11.7216 12.0477 12.5547 12.0477 13.6093C12.0477 14.61 11.8362 15.4112 11.6004 15.9946C13.0952 15.6956 14.3771 14.8 15.1865 13.5676C14.9734 13.1781 14.4462 12.4115 13.3514 11.7794Z" fill="#FF9700"/>
<path d="M10.1856 16.0942C10.4162 15.7158 10.8177 14.8752 10.8177 13.609C10.8177 12.8143 10.6592 12.1873 10.4844 11.7368C9.99625 12.3844 9.34032 12.9566 8.58121 13.3949C7.8543 13.8145 7.06844 14.0909 6.29651 14.2006C7.25925 15.2928 8.63985 16.0082 10.1856 16.0942Z" fill="#FF9700"/>
<path d="M5.49883 13.0249C5.94199 13.0353 6.87029 12.9626 7.96633 12.3297C8.64902 11.9356 9.11301 11.483 9.41726 11.1045C8.61361 11.0052 7.79153 10.7234 7.03355 10.2858C6.30552 9.8654 5.67218 9.32195 5.19089 8.70703C5.00023 9.2702 4.89673 9.87325 4.89673 10.5C4.89673 11.4078 5.11398 12.2658 5.49883 13.0249Z" fill="#FF9700"/>
<path d="M10.8143 4.90576C10.5838 5.28419 10.1823 6.12486 10.1823 7.39105C10.1823 8.18573 10.3405 8.81266 10.5155 9.26319C11.0035 8.61559 11.6595 8.04346 12.4187 7.6051C13.1455 7.18549 13.9313 6.90912 14.7034 6.79937C13.7405 5.70717 12.3601 4.9918 10.8143 4.90576Z" fill="#FF9700"/>
<path d="M15.5012 7.97525C15.0579 7.96483 14.1296 8.03773 13.0337 8.67043C12.3508 9.06457 11.887 9.51718 11.5828 9.89561C12.3864 9.99495 13.2085 10.2768 13.9663 10.7143C14.6945 11.1347 15.3278 11.6782 15.809 12.2931C15.9996 11.7299 16.1031 11.1269 16.1031 10.5001C16.1031 9.59232 15.886 8.73436 15.5012 7.97525Z" fill="#FF9700"/>
</g>
<defs>
<clipPath id="clip0_213_362">
<rect width="21" height="21" fill="white"/>
</clipPath>
</defs>
</svg>
