<svg width="64" height="79" viewBox="0 0 64 79" fill="none" xmlns="http://www.w3.org/2000/svg">
<path d="M0 67.6529C0 56.4676 9.06212 47.4 20.2408 47.4H42.9213C54.0998 47.4 63.1619 56.4676 63.1619 67.6529C63.1619 72.2669 60.0402 76.2729 55.4913 77.027C49.7977 77.9711 41.3505 79 31.581 79C21.8116 79 13.3643 77.9711 7.67078 77.027C3.12162 76.2729 0 72.2669 0 67.6529Z" fill="#FFB48C" fill-opacity="0.22"/>
<path d="M11.843 19.75C11.843 8.84238 20.6801 0 31.5811 0C42.4821 0 51.3192 8.84238 51.3192 19.75C51.3192 30.6576 42.4821 39.5 31.5811 39.5C20.6801 39.5 11.843 30.6576 11.843 19.75Z" fill="#FFB48C" fill-opacity="0.22"/>
</svg>
