<svg width="19" height="20" viewBox="0 0 19 20" fill="none" xmlns="http://www.w3.org/2000/svg">
<path d="M15.1394 6.90837C14.6453 6.98384 14.0581 7.03954 13.4019 7.03954C12.1542 7.03958 10.6568 6.83819 9.0733 6.18809C7.35676 5.48345 5.53579 5.2652 3.66072 5.53951C2.91394 5.64874 2.30654 5.81887 1.89832 5.95566L3.71149 20.4611C3.74997 20.769 4.01169 21.0001 4.32197 21.0001H14.2067C14.517 21.0001 14.7787 20.769 14.8172 20.4611L16.5497 6.60112C16.1594 6.71293 15.6841 6.82519 15.1394 6.90837Z" fill="#FF9700"/>
<path d="M17.9136 0H16.678H1.85083H0.615234C0.275461 0 0 0.275461 0 0.615234C0 0.955008 0.275461 1.23047 0.615234 1.23047H1.30774L1.743 4.71261C2.1806 4.57759 2.75436 4.43153 3.43317 4.32932C4.88586 4.11063 7.12487 4.058 9.5406 5.04976C12.7712 6.376 15.6197 5.64375 16.7178 5.25673L17.2211 1.23047H17.9136C18.2533 1.23047 18.5288 0.955008 18.5288 0.615234C18.5288 0.275461 18.2533 0 17.9136 0Z" fill="#FF9700"/>
</svg>
