<svg width="157" height="143" viewBox="0 0 157 143" fill="none" xmlns="http://www.w3.org/2000/svg">
<g clip-path="url(#clip0_17_51)">
<path d="M108.776 0H48.3451C41.2391 0 34.7404 3.89945 31.3393 10.1142L2.36866 63.0004C-0.85029 68.9105 -0.85029 76.1001 2.49013 81.9493L31.2785 133.069C34.7404 139.161 41.1783 143 48.2236 143H108.655C115.761 143 122.26 139.101 125.661 132.886L154.571 79.9996C157.79 74.0895 157.79 66.8999 154.449 61.0507L125.721 9.9314C122.26 3.83852 115.822 0 108.776 0Z" fill="#341200"/>
<path d="M115.7 87.7984C112.056 87.6157 90.981 87.7984 86.2437 87.6766C85.5149 87.6766 85.1505 87.4329 84.6039 86.8236C82.4781 84.6911 82.4781 79.6949 85.3327 77.7452C87.3977 76.7094 90.7988 77.2577 92.4387 74.9425C95.354 71.5914 92.4387 66.5343 88.4302 66.3515C83.7536 66.1687 74.1574 66.3515 70.8777 66.2906C68.3269 66.4124 66.93 62.6348 66.8692 60.3195C67.0514 57.8824 68.2661 55.628 70.2097 55.2624C74.4004 55.2624 102.885 55.2624 108.169 55.2624C115.7 54.6531 115.457 44.9045 108.169 44.478C103.31 44.478 46.6445 44.478 42.393 44.478C37.2306 44.478 34.3153 51.2411 39.0526 54.2266C40.328 55.0796 41.7857 55.2624 43.3041 55.2624C45.5512 55.2624 50.8352 55.2624 53.2646 55.2624C55.0259 55.2624 55.5118 55.4452 56.605 56.9075C57.3946 58.0652 57.9412 59.4056 57.9412 60.8679C57.8197 62.5739 57.759 62.6348 57.2124 63.7925C56.2406 65.5594 55.5118 66.3515 53.3253 66.2296C49.8027 66.3515 44.3365 65.9859 41.0569 66.4124C37.1698 66.8998 34.7404 72.0179 37.6557 75.1252C38.8704 76.4047 40.7532 77.1359 42.393 77.075C46.4623 77.075 67.7195 77.075 70.6955 77.075C72.4569 77.4405 73.4286 79.573 74.036 81.6446C74.5826 83.6553 73.4286 87.2501 71.4851 87.6157C70.7563 87.7375 68.6306 87.6157 67.2944 87.6157C59.8847 87.6157 45.6727 87.6157 42.8182 87.6157C41.1783 87.6157 39.3563 88.2859 38.0808 89.5044C34.7404 92.9165 37.7164 98.3391 42.0894 98.4001C46.3408 98.4001 108.776 98.4001 114.911 98.4001C121.774 98.2782 122.867 89.0779 115.882 87.7375H115.639L115.7 87.7984Z" fill="#FF9700"/>
<path d="M101.124 66.3514C96.022 66.5342 94.0178 73.7848 98.6944 76.2828C100.395 77.2577 102.035 77.0749 103.918 77.1358C106.711 77.1358 109.93 77.1968 112.663 77.1358C119.405 76.5875 119.405 66.8998 112.663 66.4124C109.202 66.4124 104.707 66.4124 101.306 66.4124H101.124V66.3514Z" fill="#FF9700"/>
</g>
<defs>
<clipPath id="clip0_17_51">
<rect width="157" height="143" fill="white"/>
</clipPath>
</defs>
</svg>
