<svg width="176" height="139" viewBox="0 0 176 139" fill="none" xmlns="http://www.w3.org/2000/svg">
<path d="M170.578 111.543H5.14824C2.30504 111.543 0 113.848 0 116.691C0 129.012 9.98792 139 22.309 139H153.417C165.738 139 175.726 129.012 175.726 116.691C175.726 113.848 173.421 111.543 170.578 111.543Z" fill="#FF9700"/>
<path d="M101.591 16.4702V13.7286C101.591 6.14665 95.4442 0 87.8622 0C80.2802 0 74.1335 6.14665 74.1335 13.7286V16.4702C78.6376 15.7924 83.2229 15.4447 87.8622 15.4447C92.5014 15.4447 97.0868 15.7924 101.591 16.4702Z" fill="#FF9700"/>
<path d="M144.895 49.3647C129.661 34.1308 109.407 25.7412 87.8633 25.7412C66.3193 25.7412 46.0651 34.1308 30.8311 49.3647C16.8173 63.3786 8.60102 81.6421 7.37402 101.249H168.352C167.125 81.6421 158.909 63.3786 144.895 49.3647Z" fill="#FF9700"/>
</svg>
