<svg width="19" height="19" viewBox="0 0 19 19" fill="none" xmlns="http://www.w3.org/2000/svg">
<path d="M16.2655 5.74594C16.2655 5.74594 16.2654 5.74542 16.2653 5.74512L15.0761 2.97049V1.8587C15.0761 0.833773 14.2423 0 13.2174 0H5.78263C4.75771 0 3.92393 0.833773 3.92393 1.8587V2.97049L2.73484 5.74512C2.73473 5.74542 2.73473 5.74564 2.73473 5.74564C2.70229 5.82164 2.68481 5.92206 2.68481 5.98912V17.1413C2.68481 18.1662 3.51859 19 4.54351 19H14.4565C15.4815 19 16.3152 18.1662 16.3152 17.1413V5.98912C16.3152 5.92113 16.2973 5.82046 16.2655 5.74594ZM11.8462 15.5355C11.1994 16.1823 10.3495 16.5058 9.50003 16.5058C8.65037 16.5058 7.80086 16.1823 7.15404 15.5355C6.01635 14.3978 5.85781 12.6138 6.77709 11.2935L8.99155 8.11345C9.22308 7.78065 9.7769 7.78065 10.0084 8.11345L12.2229 11.2935C13.1422 12.6138 12.9839 14.3978 11.8462 15.5355ZM4.244 5.36958L4.95212 3.71739H14.048L14.7561 5.36958H4.244Z" fill="#FF9700"/>
</svg>
