<svg width="27" height="27" viewBox="0 0 27 27" fill="none" xmlns="http://www.w3.org/2000/svg">
<g clip-path="url(#clip0_213_395)">
<path d="M24.0007 4.79373C21.1677 2.47241 17.3527 3.18257 15.7177 3.39056C15.5686 3.40952 15.438 3.50165 15.3718 3.63675C14.8659 4.66965 14.6986 5.8867 14.7711 7.0529C14.7838 7.25629 15.0346 7.35016 15.1779 7.19824C15.3478 7.01657 15.6324 7.00701 15.8141 7.17631C15.9957 7.34617 16.0053 7.63077 15.836 7.81245C15.2338 8.45573 14.3153 8.88253 13.3426 8.83781C12.1666 8.78381 11.4111 8.10161 11.1414 7.81155C11.133 7.80148 11.1193 7.78545 11.1111 7.77521C10.8779 7.48453 10.5688 7.26264 10.1998 7.21C9.24208 7.07332 8.56623 6.7593 8.35755 6.6521C7.15507 6.03795 6.26481 5.05004 5.69476 3.84526C5.59672 3.63805 5.35863 3.53658 5.14203 3.61167C2.2934 4.59934 0.793043 6.98389 0.242452 9.89973C-0.553428 14.1127 0.675376 19.3285 2.97319 22.7508C4.40774 24.8882 6.41055 26.5924 9.00444 26.5924C10.135 26.5924 11.351 26.2864 12.6374 25.6773C13.1858 25.418 13.8146 25.418 14.3624 25.6773C15.6443 26.2842 16.8682 26.5918 18.0004 26.5918C25.8195 26.5918 30.339 9.98528 24.0007 4.79373ZM5.21459 10.0583C4.68194 11.3256 4.51489 13.0062 4.74269 14.7903C4.77475 15.0372 4.60038 15.2622 4.35346 15.2937C4.11954 15.3281 3.8828 15.1589 3.85006 14.9045C3.59864 12.9376 3.78369 11.1411 4.38496 9.70962C4.48114 9.4807 4.74494 9.37327 4.97386 9.46945C5.20334 9.56563 5.31077 9.82943 5.21459 10.0583ZM6.49925 8.2731C6.41544 8.34172 6.33332 8.41484 6.25514 8.49077C6.16796 8.5757 6.0549 8.61789 5.94185 8.61789C5.54076 8.61789 5.33839 8.12647 5.62856 7.84451C5.7253 7.75114 5.82598 7.66115 5.92891 7.57678C6.12127 7.41985 6.40475 7.44797 6.56224 7.64034C6.71973 7.8327 6.69161 8.11618 6.49925 8.2731Z" fill="#FF9700"/>
<path d="M15.8146 1.54445C14.1783 3.06725 13.6671 5.3325 13.9062 7.53014C13.9348 7.79202 13.7319 8.02848 13.4585 8.02848C13.2318 8.02848 13.0366 7.85805 13.0119 7.62744C12.9647 7.1966 12.9343 6.6527 12.9641 6.04581C12.2942 6.28935 11.662 6.37654 11.1001 6.37654C9.8835 6.37654 8.99594 5.96819 8.76702 5.8512C7.03915 4.96814 6.36982 3.32238 6.12459 2.4202C5.94123 1.74469 6.2967 1.04949 6.9514 0.802567C7.82603 0.472966 9.55165 0.0516841 11.2795 0.934745C11.563 1.0793 12.7976 1.77956 13.5451 3.30551C13.9312 2.35439 14.4998 1.5413 15.1993 0.887498C15.3804 0.717636 15.665 0.726635 15.8349 0.908309C16.0047 1.08942 15.9957 1.37403 15.8146 1.54445Z" fill="#FF9700"/>
</g>
<defs>
<clipPath id="clip0_213_395">
<rect width="27" height="27" fill="white"/>
</clipPath>
</defs>
</svg>
